<svg id="Grupo_22098" data-name="Grupo 22098" xmlns="http://www.w3.org/2000/svg" xmlns:xlink="http://www.w3.org/1999/xlink" width="231.54" height="75.051" viewBox="0 0 231.54 75.051">
  <defs>
    <clipPath id="clip-path">
      <rect id="Rectángulo_13856" data-name="Rectángulo 13856" width="231.54" height="75.051" fill="none"/>
    </clipPath>
  </defs>
  <g id="Grupo_22097" data-name="Grupo 22097" clip-path="url(#clip-path)">
    <path id="Trazado_15452" data-name="Trazado 15452" d="M265.869,103.621h-3.25V99.7h3.25a1.961,1.961,0,1,1,0,3.922m-3.25-11.558h2.568a1.956,1.956,0,1,1,0,3.911h-2.568Zm9.034,1.955a6.448,6.448,0,0,0-6.467-6.412h-7.774v20.474h8.456a6.4,6.4,0,0,0,4.809-10.694,6.261,6.261,0,0,0,.975-3.368" transform="translate(-153.592 -52.272)" fill="#e3182f"/>
    <path id="Trazado_15453" data-name="Trazado 15453" d="M306.768,102.52a5.158,5.158,0,1,1,4.777-5.15,4.975,4.975,0,0,1-4.777,5.15m0-15.852a10.712,10.712,0,1,0,10.338,10.7,10.54,10.54,0,0,0-10.338-10.7" transform="translate(-176.871 -51.713)" fill="#e3182f"/>
    <path id="Trazado_15454" data-name="Trazado 15454" d="M361.989,100.525h2.426v1.12a5.751,5.751,0,0,1-3.049.875,5.154,5.154,0,1,1,0-10.288,5.621,5.621,0,0,1,3.815,1.459l.541.494,3.756-4.1-.536-.492a11.185,11.185,0,0,0-7.575-2.918,10.71,10.71,0,1,0,0,21.41,11.293,11.293,0,0,0,3.049-.414v.041h5.566V94.968h-7.992Z" transform="translate(-209.03 -51.714)" fill="#e3182f"/>
    <path id="Trazado_15455" data-name="Trazado 15455" d="M460.585,93.2v14.646h6.6V93.2h6.228V86.908H454.331V93.2Z" transform="translate(-271.088 -51.856)" fill="#e3182f"/>
    <path id="Trazado_15456" data-name="Trazado 15456" d="M524.9,110.912,512.278,77.337H500.945l-9.278,24.76h6.871L506.6,81.727l11.438,29.185Z" transform="translate(-293.365 -46.145)" fill="#e3182f"/>
    <path id="Trazado_15457" data-name="Trazado 15457" d="M412.469,102.52a5.157,5.157,0,1,1,4.777-5.149,4.973,4.973,0,0,1-4.777,5.149m9.115-10.2-.01-.021a10.313,10.313,0,0,0-9.1-5.634,10.712,10.712,0,1,0,10.34,10.7,10.943,10.943,0,0,0-1.225-5.047" transform="translate(-239.942 -51.713)" fill="#e3182f"/>
    <path id="Trazado_15458" data-name="Trazado 15458" d="M514.482,21.367l6.191-2.535-8.24-2.946L507.159,1.769l-5.472,10.4L490.519,9.871,498.4,18.4l-3.844,10.329,13.869-4.981,10.121,8.5Z" transform="translate(-292.68 -1.055)" fill="#fab62d"/>
    <path id="Trazado_15459" data-name="Trazado 15459" d="M482.1,43.9l2.538-1.63-3.036-.645-.873-3.025-1.209,2.581-4.6-.976,3.595,3.707-1.1,3,3.229-2.076,2.5,2.023Z" transform="translate(-283.371 -23.032)" fill="#fab62d"/>
    <path id="Trazado_15460" data-name="Trazado 15460" d="M549.554,5.534l2.651-1.7-3.17-.673L548.123,0l-1.536,2.637-4.525-.961,3.752,3.87-1.15,3.127,3.372-2.167,2.611,2.111Z" transform="translate(-323.434 0)" fill="#fab62d"/>
    <path id="Trazado_15461" data-name="Trazado 15461" d="M5.5,155.786h-1.2l-.473-1.246h-2.2l-.453,1.246H0l2.131-5.476H3.308Zm-2.037-2.173-.756-2.023-.737,2.023Z" transform="translate(0 -89.686)"/>
    <path id="Trazado_15462" data-name="Trazado 15462" d="M14.364,155.852v-5.43h1.108v4.5h2.745v.926Z" transform="translate(-8.571 -89.753)"/>
    <path id="Trazado_15463" data-name="Trazado 15463" d="M27.62,153.627l1.07.343a2.434,2.434,0,0,1-.82,1.34,2.593,2.593,0,0,1-3.25-.312,2.83,2.83,0,0,1-.7-2.036,2.969,2.969,0,0,1,.706-2.121,2.429,2.429,0,0,1,1.857-.757,2.284,2.284,0,0,1,1.636.594,2.2,2.2,0,0,1,.562,1.01l-1.1.261a1.133,1.133,0,0,0-1.151-.919,1.264,1.264,0,0,0-1,.44,2.122,2.122,0,0,0-.381,1.411,2.289,2.289,0,0,0,.376,1.477,1.215,1.215,0,0,0,.971.441,1.1,1.1,0,0,0,.759-.284,1.645,1.645,0,0,0,.457-.888" transform="translate(-14.272 -89.551)"/>
    <path id="Trazado_15464" data-name="Trazado 15464" d="M41.252,155.786h-1.2l-.478-1.246H37.38l-.456,1.246H35.751l2.133-5.476h1.174Zm-2.037-2.173-.756-2.023-.741,2.023Z" transform="translate(-21.332 -89.686)"/>
    <path id="Trazado_15465" data-name="Trazado 15465" d="M50.379,155.852v-5.43h1.108v4.5h2.747v.926Z" transform="translate(-30.06 -89.753)"/>
    <path id="Trazado_15466" data-name="Trazado 15466" d="M61.04,150.31h2.021a4,4,0,0,1,1.045.1,1.828,1.828,0,0,1,.824.507,2.351,2.351,0,0,1,.523.882,4.106,4.106,0,0,1,.178,1.3,3.619,3.619,0,0,1-.165,1.168,2.4,2.4,0,0,1-.588.965,1.884,1.884,0,0,1-.777.437,3.315,3.315,0,0,1-.979.115H61.04Zm1.108.93v3.618h.824a2.885,2.885,0,0,0,.669-.054,1,1,0,0,0,.449-.224,1.189,1.189,0,0,0,.289-.529,3.614,3.614,0,0,0,.113-1,3.318,3.318,0,0,0-.113-.974,1.3,1.3,0,0,0-.313-.532,1.147,1.147,0,0,0-.511-.257,5.936,5.936,0,0,0-.911-.047Z" transform="translate(-36.421 -89.686)"/>
    <path id="Trazado_15467" data-name="Trazado 15467" d="M73.937,147.413l.513-1.114h1.174L74.6,147.413Zm-.276.5h1.107v5.474H73.661Z" transform="translate(-43.952 -87.293)"/>
    <path id="Trazado_15468" data-name="Trazado 15468" d="M83.174,155.786h-1.2l-.478-1.246H79.3l-.452,1.246H77.675l2.132-5.476h1.18Zm-2.035-2.173-.757-2.023-.738,2.023Z" transform="translate(-46.347 -89.686)"/>
    <path id="Trazado_15469" data-name="Trazado 15469" d="M97.71,155.785v-5.474h1.655l.992,3.737.985-3.737H103v5.474h-1.024l0-4.308-1.089,4.308H99.815l-1.077-4.308-.005,4.308Z" transform="translate(-58.301 -89.687)"/>
    <path id="Trazado_15470" data-name="Trazado 15470" d="M117.329,155.786h-1.2l-.482-1.246h-2.19L113,155.786h-1.17l2.131-5.476h1.178Zm-2.037-2.173-.757-2.023-.741,2.023Z" transform="translate(-66.725 -89.686)"/>
    <path id="Trazado_15471" data-name="Trazado 15471" d="M124.094,155.785v-2.3l-2-3.173h1.3l1.293,2.17,1.262-2.17h1.272l-2.011,3.179v2.295Z" transform="translate(-72.848 -89.687)"/>
    <path id="Trazado_15472" data-name="Trazado 15472" d="M133.637,152.946a3.5,3.5,0,0,1,.249-1.4,2.568,2.568,0,0,1,.507-.747,2.152,2.152,0,0,1,.712-.5,2.987,2.987,0,0,1,1.18-.216,2.582,2.582,0,0,1,1.938.751,3.378,3.378,0,0,1,.007,4.16,2.543,2.543,0,0,1-1.93.749,2.584,2.584,0,0,1-1.946-.743,2.839,2.839,0,0,1-.717-2.052m1.141-.036a2.03,2.03,0,0,0,.43,1.406,1.47,1.47,0,0,0,2.173,0,2.06,2.06,0,0,0,.425-1.427,2.032,2.032,0,0,0-.412-1.4,1.4,1.4,0,0,0-1.094-.463,1.427,1.427,0,0,0-1.1.467,2.066,2.066,0,0,0-.418,1.414" transform="translate(-79.738 -89.55)"/>
    <path id="Trazado_15473" data-name="Trazado 15473" d="M147.728,155.785v-5.474h2.326a3.878,3.878,0,0,1,1.276.15,1.192,1.192,0,0,1,.635.524,1.538,1.538,0,0,1,.241.866,1.473,1.473,0,0,1-.359,1.017,1.729,1.729,0,0,1-1.076.5,2.515,2.515,0,0,1,.586.461,5.573,5.573,0,0,1,.624.888l.676,1.065H151.33l-.791-1.189c-.289-.428-.484-.692-.585-.807a.95.95,0,0,0-.33-.227,1.985,1.985,0,0,0-.561-.059h-.223v2.283Zm1.111-3.157h.815a4.554,4.554,0,0,0,.989-.065.589.589,0,0,0,.314-.235.727.727,0,0,0,.111-.409.628.628,0,0,0-.563-.663c-.083-.01-.353-.016-.8-.016h-.862Z" transform="translate(-88.145 -89.687)"/>
    <rect id="Rectángulo_13853" data-name="Rectángulo 13853" width="1.115" height="1.115" transform="translate(53.481 73.922)"/>
    <path id="Trazado_15474" data-name="Trazado 15474" d="M9.678,172.458h1.99a3.883,3.883,0,0,1,1.022.1,1.856,1.856,0,0,1,.814.494,2.342,2.342,0,0,1,.51.873,3.882,3.882,0,0,1,.177,1.271,3.612,3.612,0,0,1-.163,1.149,2.4,2.4,0,0,1-.575.949,1.921,1.921,0,0,1-.767.428,3.175,3.175,0,0,1-.958.118H9.678Zm1.089.915v3.555h.813a3.145,3.145,0,0,0,.659-.051.987.987,0,0,0,.438-.223,1.181,1.181,0,0,0,.284-.516,3.513,3.513,0,0,0,.112-.985,3.18,3.18,0,0,0-.112-.955,1.243,1.243,0,0,0-.308-.522,1.01,1.01,0,0,0-.5-.252,5.117,5.117,0,0,0-.894-.051Z" transform="translate(-5.775 -102.901)"/>
    <path id="Trazado_15475" data-name="Trazado 15475" d="M21.771,177.84v-5.386h3.988v.916h-2.9v1.191h2.693v.911H22.861v1.455h3v.913Z" transform="translate(-12.99 -102.899)"/>
    <path id="Trazado_15476" data-name="Trazado 15476" d="M38.433,172.462h2.154a5.925,5.925,0,0,1,.949.054,1.358,1.358,0,0,1,.561.221,1.419,1.419,0,0,1,.415.446,1.217,1.217,0,0,1,.164.628,1.266,1.266,0,0,1-.752,1.168,1.457,1.457,0,0,1,.752.487,1.288,1.288,0,0,1,.266.814,1.611,1.611,0,0,1-.171.717,1.5,1.5,0,0,1-.463.555,1.6,1.6,0,0,1-.733.257c-.18.017-.62.028-1.308.032H38.433Zm1.091.893V174.6h.71c.421,0,.684-.009.786-.017a.728.728,0,0,0,.438-.194.557.557,0,0,0,.16-.419.6.6,0,0,0-.138-.407.621.621,0,0,0-.409-.185c-.1-.012-.416-.021-.927-.021Zm0,2.14v1.434h1a4.683,4.683,0,0,0,.747-.033.691.691,0,0,0,.4-.211.668.668,0,0,0,.154-.457.711.711,0,0,0-.118-.414.693.693,0,0,0-.34-.245,3.707,3.707,0,0,0-.966-.076Z" transform="translate(-22.932 -102.904)"/>
    <path id="Trazado_15477" data-name="Trazado 15477" d="M50.553,175.047a3.491,3.491,0,0,1,.243-1.378,2.637,2.637,0,0,1,.5-.739,2.072,2.072,0,0,1,.7-.482,2.968,2.968,0,0,1,1.162-.213,2.513,2.513,0,0,1,1.9.739,3.3,3.3,0,0,1,.005,4.087,2.506,2.506,0,0,1-1.9.738,2.536,2.536,0,0,1-1.905-.732,2.777,2.777,0,0,1-.709-2.02m1.121-.033a2,2,0,0,0,.423,1.379,1.449,1.449,0,0,0,2.139.007,2.061,2.061,0,0,0,.414-1.4,2.023,2.023,0,0,0-.4-1.379,1.508,1.508,0,0,0-2.16.007,2.021,2.021,0,0,0-.412,1.388" transform="translate(-30.164 -102.768)"/>
    <path id="Trazado_15478" data-name="Trazado 15478" d="M67.393,175.74v-.913h2.343v2.138a3.039,3.039,0,0,1-.991.583,3.61,3.61,0,0,1-1.312.252,2.892,2.892,0,0,1-1.469-.359,2.238,2.238,0,0,1-.945-1.009A3.311,3.311,0,0,1,64.7,175a3.075,3.075,0,0,1,.358-1.491,2.363,2.363,0,0,1,1.028-1.007,2.805,2.805,0,0,1,1.29-.267,2.613,2.613,0,0,1,1.568.417,1.916,1.916,0,0,1,.723,1.166l-1.08.206a1.142,1.142,0,0,0-.426-.628,1.291,1.291,0,0,0-.784-.229,1.467,1.467,0,0,0-1.129.451,1.894,1.894,0,0,0-.423,1.339,2.075,2.075,0,0,0,.429,1.431,1.4,1.4,0,0,0,1.111.481,1.937,1.937,0,0,0,.683-.131,2.333,2.333,0,0,0,.588-.323v-.674Z" transform="translate(-38.605 -102.768)"/>
    <path id="Trazado_15479" data-name="Trazado 15479" d="M78.34,175.047a3.4,3.4,0,0,1,.246-1.378,2.576,2.576,0,0,1,.5-.739,2.135,2.135,0,0,1,.7-.482,2.981,2.981,0,0,1,1.163-.213,2.544,2.544,0,0,1,1.905.739,3.312,3.312,0,0,1,0,4.087,2.506,2.506,0,0,1-1.9.738,2.532,2.532,0,0,1-1.908-.732,2.777,2.777,0,0,1-.709-2.02m1.123-.033a2,2,0,0,0,.419,1.379,1.365,1.365,0,0,0,1.069.475,1.394,1.394,0,0,0,1.076-.468,2.576,2.576,0,0,0,.01-2.781,1.393,1.393,0,0,0-1.086-.452,1.379,1.379,0,0,0-1.078.459,2.017,2.017,0,0,0-.41,1.388" transform="translate(-46.743 -102.768)"/>
    <path id="Trazado_15480" data-name="Trazado 15480" d="M92.914,177.84v-4.47h-1.6v-.916H95.6v.916H94v4.47Z" transform="translate(-54.486 -102.899)"/>
    <path id="Trazado_15481" data-name="Trazado 15481" d="M106.007,175.493H104.82l-.468-1.226H102.2l-.444,1.226H100.6l2.1-5.386h1.155ZM104,173.352l-.745-1.988-.72,1.988Zm-1.122-3.734.505-1.1h1.153l-1.006,1.1Z" transform="translate(-60.026 -100.552)"/>
    <path id="Trazado_15482" data-name="Trazado 15482" d="M121.4,172.458h1.991a3.9,3.9,0,0,1,1.023.1,1.835,1.835,0,0,1,.813.494,2.445,2.445,0,0,1,.514.873,4,4,0,0,1,.175,1.271,3.576,3.576,0,0,1-.164,1.149,2.4,2.4,0,0,1-.579.949,1.879,1.879,0,0,1-.761.428,3.23,3.23,0,0,1-.964.118H121.4Zm1.089.915v3.555h.813a3.156,3.156,0,0,0,.659-.051.985.985,0,0,0,.439-.223,1.185,1.185,0,0,0,.285-.516,3.528,3.528,0,0,0,.106-.985,3.2,3.2,0,0,0-.106-.955,1.2,1.2,0,0,0-.312-.522,1,1,0,0,0-.5-.252,5.141,5.141,0,0,0-.895-.051Z" transform="translate(-72.436 -102.901)"/>
    <path id="Trazado_15483" data-name="Trazado 15483" d="M139.023,175.718l1.049.335a2.4,2.4,0,0,1-.8,1.315,2.531,2.531,0,0,1-3.191-.3,2.782,2.782,0,0,1-.7-2.006,2.927,2.927,0,0,1,.7-2.082,2.38,2.38,0,0,1,1.825-.746,2.242,2.242,0,0,1,1.606.587,2.1,2.1,0,0,1,.552.993l-1.074.256a1.12,1.12,0,0,0-1.132-.9,1.222,1.222,0,0,0-.978.428,2.1,2.1,0,0,0-.371,1.391,2.224,2.224,0,0,0,.367,1.449,1.18,1.18,0,0,0,.953.434,1.086,1.086,0,0,0,.748-.277,1.6,1.6,0,0,0,.448-.871" transform="translate(-80.78 -102.766)"/>
    <rect id="Rectángulo_13854" data-name="Rectángulo 13854" width="1.115" height="1.115" transform="translate(59.462 73.936)"/>
    <path id="Trazado_15484" data-name="Trazado 15484" d="M31.92,26.9a20.811,20.811,0,0,0,19.25.046A20.848,20.848,0,0,0,70.419,26.9V61.4a7.694,7.694,0,0,1-7.831,7.573c-4.165,0-7.835.617-11.418,2.873-3.584-2.293-7.293-2.873-11.463-2.873A7.654,7.654,0,0,1,31.92,61.4Z" transform="translate(-19.046 -16.052)" fill="#09559a"/>
    <path id="Trazado_15485" data-name="Trazado 15485" d="M48.162,67.895A4.933,4.933,0,0,0,53.179,72.9a13.261,13.261,0,0,1,7.636,1.852A13.2,13.2,0,0,1,68.4,72.9a5.248,5.248,0,0,0,5.372-5.008L73.8,44.7c-3.129,1.628-9.836.558-12.831-1-2.962,1.542-9.742,2.654-12.829,1" transform="translate(-28.724 -26.074)" fill="#fbcf02"/>
    <path id="Trazado_15486" data-name="Trazado 15486" d="M104.676,87.933s.3-.8.147-.894c-.147-.049-.732.564-.732.564-.15-.468-.888-.468-.888-.468v.187c.5.048.592.709.442.945-.045.143.491.469.59.331a.7.7,0,0,1,1.076,0l.1-.1s-.241-.659-.735-.569" transform="translate(-61.579 -51.932)" fill="#e3262a"/>
    <path id="Trazado_15487" data-name="Trazado 15487" d="M96.909,90.175a2.142,2.142,0,0,0-2.937.332,1.97,1.97,0,0,0,.88,2.626c-.728.062-1.667-.926-1.667-.926-.412.762.34,1.189.925,1.4-2.293,1.563-2.3,4.3-2.447,4.979l1.128-.048c.193-.927-.323-2.991,2.03-4.632,1.335,1.544,1.938.381,1.938.381A3.076,3.076,0,0,1,95.1,93.29a2.041,2.041,0,0,0,2.783-.375,2.065,2.065,0,0,0-.978-2.74m-.15,2.128c-.585.848-1.275,1.038-1.711.752-.444-.233-.586-.944,0-1.744.54-.853,1.369-1.277,1.808-1.039s.441,1.178-.1,2.031" transform="translate(-54.693 -53.557)" fill="#e3262a"/>
    <path id="Trazado_15488" data-name="Trazado 15488" d="M51.8,88.6c.1.141.637-.187.588-.329-.146-.236-.048-.9.444-.944v-.188s-.738,0-.884.469c0,0-.588-.614-.734-.565-.146.1.146.893.146.893-.491-.088-.734.57-.734.57l.1.093a.709.709,0,0,1,1.077,0" transform="translate(-30.206 -51.933)" fill="#e3262a"/>
    <path id="Trazado_15489" data-name="Trazado 15489" d="M55.634,93.6c.589-.206,1.341-.634.93-1.4,0,0-.941.989-1.662.928a1.981,1.981,0,0,0,.875-2.627,2.142,2.142,0,0,0-2.935-.332,2.066,2.066,0,0,0-.983,2.739,2.041,2.041,0,0,0,2.783.377,3.063,3.063,0,0,1-1.655,1s.6,1.162,1.944-.383c2.346,1.642,1.831,3.7,2.024,4.633l1.127.048c-.14-.676-.148-3.417-2.448-4.98m-.934-.547c-.439.284-1.126.094-1.714-.754-.537-.853-.537-1.8-.1-2.031s1.27.187,1.811,1.038c.588.8.442,1.512,0,1.747" transform="translate(-30.806 -53.557)" fill="#e3262a"/>
    <path id="Trazado_15490" data-name="Trazado 15490" d="M88.756,102.461a2.2,2.2,0,0,0-1.468-.663,1.992,1.992,0,0,0,.54,1.6,1.892,1.892,0,0,0,1.468.709,2.329,2.329,0,0,0-.54-1.651" transform="translate(-52.076 -60.74)" fill="#e3262a"/>
    <path id="Trazado_15491" data-name="Trazado 15491" d="M67.545,102.461a2.348,2.348,0,0,0-.54,1.651,1.9,1.9,0,0,0,1.471-.709,2,2,0,0,0,.537-1.6,2.2,2.2,0,0,0-1.468.663" transform="translate(-39.976 -60.74)" fill="#e3262a"/>
    <path id="Trazado_15492" data-name="Trazado 15492" d="M61.553,51.547a.456.456,0,0,1,.489-.475.444.444,0,0,1,.44.475.429.429,0,0,1-.44.42.445.445,0,0,1-.489-.42m2.253-1.417.981-1.514-1.52.57-.542-1.369-.586,1.369-1.567-.57L61.6,50.13Zm.565,13.814c-.807-.619.1-.891.317-.684a3.227,3.227,0,0,0,3.821.525A4.068,4.068,0,0,1,66.4,61.7a4.543,4.543,0,0,0,5.188-.233c-1.955.33-3.475-1.514-3.475-1.514a5.871,5.871,0,0,0,5.139-1.321c-1.126.092-3.914-1.085-3.914-1.085,4.456-.141,4.848-3.311,4.9-3.311-1.228.805-4.509.426-4.509.426,4.657-1.652,4.313-5.475,4.313-5.475-.985,1.462-5.484,2.879-5.484,2.879a3,3,0,0,0-2.2,2.738,1.094,1.094,0,0,1-1.077.946c-1.2,0-1.182-1.732-1.182-2.553,0-1.229-.046-2.641-.927-2.641H61.406c-.319,0-.866-.034-1.093.237-.457.53-.386,1.931-.181,1.65a2.1,2.1,0,0,1,1.126,0c.567.163.148,1.929.148,2.317a1.062,1.062,0,0,1-1.079.991,1.091,1.091,0,0,1-1.078-.946,3.016,3.016,0,0,0-2.156-2.738s-4.6-1.417-5.581-2.879c0,0-.344,3.868,4.356,5.572,0,0-3.329.283-4.553-.523.048,0,.635,3.311,5.092,3.451a14.953,14.953,0,0,1-4.015.848,5.692,5.692,0,0,0,5.242,1.7,4.965,4.965,0,0,1-3.678,1.231,4.557,4.557,0,0,0,5.2.33,3.868,3.868,0,0,1-2.06,1.987,3.3,3.3,0,0,0,3.869-.525c.262-.292,1.1.046.262.686-1.119.855-2.716,1.062-3.4,2.478l.826.163c-.928.937-2.167,2.264-2.295,2.3,0,0-.292-.425-1.225.048-.489.236-.735.847-.391,1.086,0,0-.146.756.735.708,0,0,.343.615,1.076.141.688-.475-.049-.329-.147-.517-.1-.146.051-.1.051-.1.341-.05.784-.424.486-.755a32.469,32.469,0,0,1,2.788-1.8l.153.763a3.239,3.239,0,0,1,1.7-1.132,4.705,4.705,0,0,0-.918,3.776s.192-.613,1.175-.711c0,0-1.371,1.657.831,4.869,2.2-3.212.933-4.869.933-4.869a1.392,1.392,0,0,1,1.223.711,4.791,4.791,0,0,0-.979-3.808,3.139,3.139,0,0,1,1.715,1.163l.157-.782c1.179.732,2.812,1.761,2.783,1.821-.3.331.19.705.484.755,0,0,.1-.05.053.1-.1.188-.836.043-.147.517a.719.719,0,0,0,1.078-.141c.878.048.736-.708.736-.708.341-.239.1-.85-.442-1.086-.93-.473-1.225-.048-1.225-.048-.1-.032-1.323-1.361-2.236-2.3l.813-.159c-.592-1.356-2.176-1.655-3.253-2.48" transform="translate(-30.619 -28.531)"/>
    <path id="Trazado_15493" data-name="Trazado 15493" d="M36.97,46.006a3.066,3.066,0,0,1-1.753-.118s-.128,1.09,1.533.743c-.084.86.439,1.5.669,2.348a2.119,2.119,0,0,0-.44-.4,2.449,2.449,0,0,0-1.614-.281,1.566,1.566,0,0,0,.782,1.183,2.173,2.173,0,0,0,1.371.356,3.6,3.6,0,0,1-.394,1.437l.786.613a4.935,4.935,0,0,0-.1-3.732c-.4-.839-.478-1.162-.43-1.481.536.194,1.608.46,1.753-.456a3.127,3.127,0,0,1-1.758-.187,2.022,2.022,0,0,0,2.1-1.513,1.894,1.894,0,0,0-2.01-1.748,2.006,2.006,0,0,0-2.3,1.463,1.907,1.907,0,0,0,1.8,1.771m.5-3.187c.444.048.786.8.735,1.748-.048.9-.538,1.371-.978,1.322-.488-.046-.88-.567-.834-1.464.052-.943.59-1.653,1.077-1.606" transform="translate(-20.981 -25.515)" fill="#fbcf02"/>
    <path id="Trazado_15494" data-name="Trazado 15494" d="M82.7,38.343c-.294.331.052.854.052.854h.143a.687.687,0,0,1,.593-.854c.142,0,.142-.566,0-.566-.249,0-.736-.378-.494-.8l-.147-.049s-.39.518-.095.851c0,0-.835.141-.835.283s.782.283.782.283" transform="translate(-48.878 -22.033)" fill="#fbcf02"/>
    <path id="Trazado_15495" data-name="Trazado 15495" d="M38.92,39.868c0,.141.591.188.639.045a.672.672,0,0,1,.879-.47l.052-.095s-.491-.429-.884-.144c0,0-.094-.755-.244-.755-.147-.045-.391.71-.391.71-.294-.284-.88.045-.88.045l.046.144a.6.6,0,0,1,.784.52" transform="translate(-22.727 -22.94)" fill="#fbcf02"/>
    <path id="Trazado_15496" data-name="Trazado 15496" d="M116.782,39.911c0,.144.636.1.636-.046a.586.586,0,0,1,.785-.519l.05-.142s-.589-.33-.88-.046c0,0-.247-.757-.39-.71-.149,0-.251.756-.251.756-.388-.285-.88.142-.88.142l.053.094a.672.672,0,0,1,.878.471" transform="translate(-69.125 -22.94)" fill="#fbcf02"/>
    <path id="Trazado_15497" data-name="Trazado 15497" d="M117.749,74.34a.67.67,0,0,1,.88-.473l.053-.141s-.494-.381-.884-.1c0,0-.1-.753-.25-.753-.141-.048-.392.7-.392.7-.289-.279-.874.049-.874.049l.048.142a.584.584,0,0,1,.78.519c0,.144.637.192.637.051" transform="translate(-69.384 -43.481)" fill="#fbcf02"/>
    <path id="Trazado_15498" data-name="Trazado 15498" d="M116.124,46.033a3.092,3.092,0,0,1-1.753.187c.144.913,1.213.653,1.75.457a2.656,2.656,0,0,1-.43,1.481,4.724,4.724,0,0,0-.1,3.732l.782-.613a3.7,3.7,0,0,1-.416-1.437,2.2,2.2,0,0,0,1.4-.357,1.755,1.755,0,0,0,.782-1.182,2.445,2.445,0,0,0-1.616.282,1.977,1.977,0,0,0-.5.46c.213-.877.774-1.53.707-2.413,1.685.353,1.549-.739,1.549-.739a3.076,3.076,0,0,1-1.753.12,1.9,1.9,0,0,0,1.8-1.775,2,2,0,0,0-2.3-1.462,1.9,1.9,0,0,0-2.014,1.747,2.025,2.025,0,0,0,2.1,1.512m-.089-3.212c.491-.047,1.029.662,1.076,1.6.05.9-.394,1.418-.831,1.465-.492.047-.984-.424-1.03-1.323-.048-.946.343-1.7.785-1.747" transform="translate(-68.033 -25.516)" fill="#fbcf02"/>
    <path id="Trazado_15499" data-name="Trazado 15499" d="M39.989,73.769l.046-.143s-.586-.326-.88-.047c0,0-.244-.754-.391-.706-.145,0-.246.753-.246.753-.391-.282-.878.1-.878.1l.048.142a.677.677,0,0,1,.885.474c.046.139.629.092.629-.052a.59.59,0,0,1,.789-.519" transform="translate(-22.458 -43.481)" fill="#fbcf02"/>
    <path id="Trazado_15500" data-name="Trazado 15500" d="M73.737,38.343a.683.683,0,0,1,.589.854h.145s.344-.523.054-.854c0,0,.779-.14.779-.283s-.832-.283-.832-.283c.293-.333-.1-.851-.1-.851l-.145.049c.245.424-.243.8-.489.8-.146,0-.146.566,0,.566" transform="translate(-43.932 -22.033)" fill="#fbcf02"/>
    <path id="Trazado_15501" data-name="Trazado 15501" d="M36.612,86.248l.788-.61c-1.128-2.344.512-3.175.371-4.645,1.665.346,1.538-.741,1.538-.741a2.947,2.947,0,0,1-1.838.086,1.87,1.87,0,0,0,1.884-1.74,2.076,2.076,0,0,0-2.3-1.514,1.685,1.685,0,1,0,.144,3.27c-.528.433-1.811.225-1.811.225.147.915,1.216.652,1.755.459.044.319-.035.642-.428,1.481a3.2,3.2,0,0,0-.182.453,1.262,1.262,0,0,0-.51-.83,1.867,1.867,0,0,0-1.467-.523A1.359,1.359,0,0,0,35,82.9a2,2,0,0,0,1.415.522,4.806,4.806,0,0,0,.2,2.827m-.29-7.318c-.053-.947.29-1.7.732-1.75.489-.046,1.029.663,1.077,1.608.046.9-.34,1.415-.832,1.465-.44.046-.93-.428-.977-1.323" transform="translate(-20.601 -45.993)" fill="#fbcf02"/>
    <path id="Trazado_15502" data-name="Trazado 15502" d="M38.346,108.718c.048.1.586-.233.488-.327a.643.643,0,0,1,.443-.9l-.049-.14s-.636,0-.784.425c0,0-.539-.565-.687-.471s.2.8.2.8c-.49-.094-.738.521-.738.521l.1.09a.655.655,0,0,1,1.028,0" transform="translate(-22.207 -64.019)" fill="#fbcf02"/>
    <path id="Trazado_15503" data-name="Trazado 15503" d="M118.895,108.107s.3-.707.2-.8c-.145-.094-.684.472-.684.472-.151-.426-.786-.426-.786-.426l-.047.142a.614.614,0,0,1,.39.9c-.048.094.49.426.541.328a.61.61,0,0,1,.981,0l.144-.092s-.249-.615-.737-.52" transform="translate(-70.154 -64.019)" fill="#fbcf02"/>
    <path id="Trazado_15504" data-name="Trazado 15504" d="M95.937,37.962l-.59-.8a3.988,3.988,0,0,1-1.518.269,2.02,2.02,0,0,0-.244-1.358,1.657,1.657,0,0,0-1.173-.85,1.9,1.9,0,0,0,.194,1.56,1.671,1.671,0,0,0,.4.5c-.859-.271-1.475-.835-2.353-.868.436-1.568-.694-1.528-.694-1.528a2.6,2.6,0,0,1-.045,1.733A1.8,1.8,0,0,0,88.292,34.7a1.9,1.9,0,0,0-1.757,2.031,1.838,1.838,0,0,0,1.615,2.079,1.884,1.884,0,0,0,1.759-1.925c.4.542.1,1.737.1,1.737.9-.036.736-1.119.613-1.631a3.4,3.4,0,0,1,1.445.545,5.515,5.515,0,0,0,3.87.425m-7.645-.333c-.925-.046-1.66-.424-1.707-.9,0-.421.782-.9,1.758-.9.931.049,1.423.519,1.423.945.047.473-.492.9-1.474.849" transform="translate(-51.632 -20.706)" fill="#fbcf02"/>
    <path id="Trazado_15505" data-name="Trazado 15505" d="M118.2,81.62a1.912,1.912,0,0,0-1.513.522,1.449,1.449,0,0,0-.492.826,3.952,3.952,0,0,0-.194-.448c-.4-.84-.478-1.162-.434-1.481.536.194,1.607.457,1.754-.457,0,0-1.284.205-1.809-.226a1.685,1.685,0,1,0,.15-3.271,2.079,2.079,0,0,0-2.307,1.515,1.865,1.865,0,0,0,1.883,1.74,2.748,2.748,0,0,1-1.784-.086s-.175,1.092,1.494.738c-.1,1.473,1.538,2.3.368,4.649l.779.61a4.671,4.671,0,0,0,.223-2.828,1.984,1.984,0,0,0,1.394-.523,1.522,1.522,0,0,0,.489-1.278m-3.621-2.833c.049-.947.584-1.653,1.081-1.607.433.049.83.8.779,1.75-.046.895-.536,1.369-1.032,1.323-.435-.048-.874-.567-.828-1.465" transform="translate(-67.634 -45.993)" fill="#fbcf02"/>
    <path id="Trazado_15506" data-name="Trazado 15506" d="M109.855,110.354a1.986,1.986,0,0,0-2.695.236,1.792,1.792,0,0,0,.721,2.431c-.678.028-1.558-.824-1.558-.824-.441.781.584,1.188,1.122,1.344-.166.29-.436.5-1.27.924a5.139,5.139,0,0,0-2.449,2.929l1.034-.046a3.617,3.617,0,0,1,.559-1.364,2.337,2.337,0,0,0,1.3.515,1.8,1.8,0,0,0,1.416-.523,2.115,2.115,0,0,0-1.469-.659,1.943,1.943,0,0,0-.65.05c.713-.545,1.542-.752,2.053-1.493,1.123,1.222,1.683.262,1.683.262a2.791,2.791,0,0,1-1.516-.949,1.958,1.958,0,0,0,2.6-.327,1.9,1.9,0,0,0-.879-2.5m-.2,1.936c-.537.759-1.18.947-1.568.709-.438-.236-.538-.894,0-1.652s1.325-1.134,1.714-.9.392,1.089-.146,1.84" transform="translate(-61.891 -65.606)" fill="#fbcf02"/>
    <path id="Trazado_15507" data-name="Trazado 15507" d="M43.042,114.466c-.831-.42-1.1-.634-1.264-.924.53-.156,1.559-.562,1.118-1.345,0,0-.919.884-1.6.823a1.779,1.779,0,0,0,.768-2.429,1.984,1.984,0,0,0-2.693-.235,1.894,1.894,0,0,0-.885,2.5,1.928,1.928,0,0,0,2.622.283,2.7,2.7,0,0,1-1.545.991s.564.962,1.692-.261c.5.741,1.339.948,2.043,1.49a1.932,1.932,0,0,0-.647-.048,2.038,2.038,0,0,0-1.468.659,1.727,1.727,0,0,0,1.419.521,2.479,2.479,0,0,0,1.3-.513,3.585,3.585,0,0,1,.562,1.364l1.03.046a5.1,5.1,0,0,0-2.449-2.927M41.133,113c-.39.236-1.028.05-1.569-.709s-.538-1.605-.146-1.84,1.177.14,1.715.9c.489.756.392,1.416,0,1.651" transform="translate(-22.838 -65.606)" fill="#fbcf02"/>
    <path id="Trazado_15508" data-name="Trazado 15508" d="M57.646,38.811a1.842,1.842,0,0,0,1.617-2.08A1.9,1.9,0,0,0,57.5,34.7a1.807,1.807,0,0,0-1.616,1.921,2.635,2.635,0,0,1-.048-1.733s-1.126-.041-.69,1.527c-.882.035-1.494.6-2.351.87a1.6,1.6,0,0,0,.394-.506,1.924,1.924,0,0,0,.2-1.558,1.64,1.64,0,0,0-1.175.849,2.028,2.028,0,0,0-.247,1.358,4,4,0,0,1-1.517-.268l-.585.8a5.514,5.514,0,0,0,3.867-.43,3.42,3.42,0,0,1,1.445-.543c-.127.513-.287,1.6.613,1.63,0,0-.3-1.2.1-1.734a1.883,1.883,0,0,0,1.762,1.923M56.03,36.78c0-.425.488-.9,1.42-.947.978,0,1.763.476,1.763.9-.048.474-.785.852-1.715.9-.98.05-1.52-.373-1.468-.849" transform="translate(-29.75 -20.705)" fill="#fbcf02"/>
    <path id="Trazado_15509" data-name="Trazado 15509" d="M75.285,124.044a2.913,2.913,0,0,1-1.559.169c.26-.469.666-1.433-.252-1.681,0,0,.038,1.172-.459,1.607a1.9,1.9,0,0,0-1.259-2.222,1.94,1.94,0,0,0-2.106,1.7,1.979,1.979,0,0,0,1.274,2.36,1.844,1.844,0,0,0,2.033-1.541,2.638,2.638,0,0,1-.367,1.682s1.116.33,1.016-1.289a8.271,8.271,0,0,0,2.535-.342,1.936,1.936,0,0,0-.512.355,2.492,2.492,0,0,0-.541,1.516A1.984,1.984,0,0,0,77,124.506a3.926,3.926,0,0,1,1.417.574l.783-.657a5.533,5.533,0,0,0-3.918-.38m-2.4.19c-.1.469-.736.8-1.665.611s-1.568-.8-1.47-1.225.93-.663,1.91-.523c.932.193,1.323.712,1.225,1.137" transform="translate(-41.535 -72.728)" fill="#fbcf02"/>
    <path id="Trazado_15510" data-name="Trazado 15510" d="M66.9,123.77c-.246-.048-.639-.518-.341-.9l-.152-.1s-.485.426-.242.85c0,0-.782,0-.835.095-.047.141.735.473.735.473-.39.286-.143.849-.143.849h.143c-.1-.47.44-.757.733-.706.1.046.247-.517.1-.568" transform="translate(-38.981 -73.258)" fill="#fbcf02"/>
    <rect id="Rectángulo_13855" data-name="Rectángulo 13855" width="1.193" height="64.182" transform="translate(83.516 10.848)"/>
  </g>
</svg>
