<svg id="Grupo_22259" data-name="Grupo 22259" xmlns="http://www.w3.org/2000/svg" xmlns:xlink="http://www.w3.org/1999/xlink" width="54.141" height="53.767" viewBox="0 0 54.141 53.767">
  <defs>
    <clipPath id="clip-path">
      <rect id="Rectángulo_13914" data-name="Rectángulo 13914" width="54.141" height="53.766" fill="none"/>
    </clipPath>
  </defs>
  <rect id="Rectángulo_13911" data-name="Rectángulo 13911" width="30.226" height="30.34" transform="translate(23.886 1.779)" fill="#0193cf"/>
  <rect id="Rectángulo_13912" data-name="Rectángulo 13912" width="31.286" height="31.286" transform="translate(0 20.982)" fill="#e31351"/>
  <g id="Grupo_22258" data-name="Grupo 22258" transform="translate(0 0)">
    <g id="Grupo_22257" data-name="Grupo 22257" clip-path="url(#clip-path)">
      <path id="Trazado_15627" data-name="Trazado 15627" d="M17.349,0A17.282,17.282,0,1,1,.067,17.282,17.281,17.281,0,0,1,17.349,0" transform="translate(0.028 0)" fill="#ffc324"/>
      <path id="Trazado_15628" data-name="Trazado 15628" d="M28.845,5.771A22.808,22.808,0,1,1,6.037,28.579,22.808,22.808,0,0,1,28.845,5.771" transform="translate(2.487 2.378)" fill="#6fb43f"/>
      <path id="Trazado_15629" data-name="Trazado 15629" d="M19.6,15.457A15.221,15.221,0,1,1,4.378,30.678,15.221,15.221,0,0,1,19.6,15.457" transform="translate(1.804 6.369)" fill="#a51984"/>
      <path id="Trazado_15630" data-name="Trazado 15630" d="M42.114,19.576a11.049,11.049,0,0,1-.936,4.506,11.831,11.831,0,0,1-2.707,3.831,12.342,12.342,0,0,1-4.028,2.566,13.377,13.377,0,0,1-9.5,0,11.974,11.974,0,0,1-3.982-2.566,11.6,11.6,0,0,1-2.688-12.9,12.079,12.079,0,0,1,6.651-6.36,13.423,13.423,0,0,1,4.8-.853,13.061,13.061,0,0,1,4.777.853,12.178,12.178,0,0,1,6.689,6.378,11.416,11.416,0,0,1,.926,4.544m-8.43.121a5.351,5.351,0,0,0-1.077-3.541,3.589,3.589,0,0,0-2.9-1.292,3.568,3.568,0,0,0-2.913,1.292A5.4,5.4,0,0,0,25.722,19.7a5.4,5.4,0,0,0,1.059,3.531A3.58,3.58,0,0,0,29.7,24.512a3.589,3.589,0,0,0,2.913-1.284A5.337,5.337,0,0,0,33.684,19.7" transform="translate(7.155 3.215)" fill="#fff"/>
      <path id="Trazado_15631" data-name="Trazado 15631" d="M16.916,24.18a4.492,4.492,0,0,1-4.694-4.468v-.095a4.486,4.486,0,0,1,4.694-4.468,8.563,8.563,0,0,1,4.468,2.014L23.8,10.093a10.226,10.226,0,0,0-3.738-1.8,17.709,17.709,0,0,0-7.587-.188A11.685,11.685,0,0,0,3.934,19.254v.823a11.686,11.686,0,0,0,8.543,11.148,17.519,17.519,0,0,0,7.587-.188,10.226,10.226,0,0,0,3.738-1.8l-2.417-7.071a8.648,8.648,0,0,1-4.468,2.014" transform="translate(1.621 3.199)" fill="#fff"/>
      <path id="Trazado_15632" data-name="Trazado 15632" d="M11.861,33.519V28.273h1.771v3.934h1.8v1.312Z" transform="translate(4.887 11.649)" fill="#fff"/>
      <path id="Trazado_15633" data-name="Trazado 15633" d="M20.417,30.94A2.669,2.669,0,0,1,20.2,32a2.754,2.754,0,0,1-.627.89,3.02,3.02,0,0,1-2.07.8,3.013,3.013,0,0,1-1.124-.206,2.83,2.83,0,0,1-.946-.6A2.561,2.561,0,0,1,14.8,32a2.508,2.508,0,0,1-.216-1.059,2.669,2.669,0,0,1,.216-1.059,2.786,2.786,0,0,1,.637-.89,2.735,2.735,0,0,1,.946-.6,3.013,3.013,0,0,1,1.124-.206,3.088,3.088,0,0,1,1.124.206,2.844,2.844,0,0,1,.946.6,2.647,2.647,0,0,1,.843,1.949m-2.895,1.152a.9.9,0,0,0,.7-.328,1.206,1.206,0,0,0,.271-.825,1.237,1.237,0,0,0-.281-.825.908.908,0,0,0-1.4,0,1.223,1.223,0,0,0-.271.825,1.249,1.249,0,0,0,.271.825.9.9,0,0,0,.7.328" transform="translate(6.008 11.614)" fill="#fff"/>
      <path id="Trazado_15634" data-name="Trazado 15634" d="M13.244,30.94A2.692,2.692,0,0,1,13.031,32a2.763,2.763,0,0,1-.63.89,2.954,2.954,0,0,1-.955.6,3.14,3.14,0,0,1-2.238,0,2.8,2.8,0,0,1-.946-.6A2.608,2.608,0,0,1,7.41,30.94a2.669,2.669,0,0,1,.216-1.059,2.764,2.764,0,0,1,.637-.89,2.709,2.709,0,0,1,.946-.6,3.006,3.006,0,0,1,1.123-.206,3.1,3.1,0,0,1,1.125.206,2.824,2.824,0,0,1,.945.6,2.675,2.675,0,0,1,.63.89,2.528,2.528,0,0,1,.213,1.059m-2.883,1.152a.9.9,0,0,0,.7-.328,1.206,1.206,0,0,0,.271-.825,1.237,1.237,0,0,0-.281-.825.906.906,0,0,0-1.4,0,1.224,1.224,0,0,0-.273.825,1.243,1.243,0,0,0,.273.825.871.871,0,0,0,.7.328" transform="translate(3.053 11.614)" fill="#fff"/>
      <path id="Trazado_15635" data-name="Trazado 15635" d="M25.807,33.519H24.036s-.459-2.529-.477-2.753c-.038.225-.722,2.753-.722,2.753h-.956s-.823-2.529-.861-2.745c-.018.2-.524,2.745-.524,2.745H18.754l1.029-5.246h1.809s.693,2.108.712,2.276c.01-.093.7-2.276.7-2.276H24.73Z" transform="translate(7.727 11.649)" fill="#fff"/>
      <path id="Trazado_15636" data-name="Trazado 15636" d="M24.12,33.519V28.273h1.593a11.179,11.179,0,0,1,1.368.056,2.229,2.229,0,0,1,.674.2,1.135,1.135,0,0,1,.657,1.059.99.99,0,0,1-.253.712,1.639,1.639,0,0,1-.806.4,1.437,1.437,0,0,1,.964.393,1.258,1.258,0,0,1,.347.936,1.389,1.389,0,0,1-.2.741,1.312,1.312,0,0,1-.562.5,2.715,2.715,0,0,1-.73.206,11.858,11.858,0,0,1-1.423.066H24.12Zm1.724-3.4h.168a.836.836,0,0,0,.441-.083.409.409,0,0,0,.01-.572.76.76,0,0,0-.431-.085h-.188Zm0,2.052h.346a1,1,0,0,0,.507-.093.313.313,0,0,0,.15-.3.385.385,0,0,0-.131-.328.91.91,0,0,0-.5-.093h-.364v.815Z" transform="translate(9.938 11.649)" fill="#fff"/>
      <rect id="Rectángulo_13913" data-name="Rectángulo 13913" width="1.724" height="5.246" transform="translate(39.21 39.922)" fill="#fff"/>
      <path id="Trazado_15637" data-name="Trazado 15637" d="M29.494,33.517,31.3,28.273H33.09l1.817,5.244H33.184l-.243-.823H31.366l-.271.823Zm2.238-1.957h.806s-.291-.871-.384-1.134c-.095.244-.422,1.134-.422,1.134" transform="translate(12.152 11.649)" fill="#fff"/>
      <path id="Trazado_15638" data-name="Trazado 15638" d="M7.2,31.989A1.042,1.042,0,0,1,6.09,30.978v-.02A1.035,1.035,0,0,1,7.2,29.947a2.016,2.016,0,0,1,1.059.459l.57-1.6a2.327,2.327,0,0,0-.88-.4,4.226,4.226,0,0,0-1.789-.037,2.667,2.667,0,0,0-2.023,2.511v.186a2.672,2.672,0,0,0,2.014,2.52,4.4,4.4,0,0,0,1.789-.038,2.525,2.525,0,0,0,.881-.4l-.572-1.6a2.175,2.175,0,0,1-1.049.449" transform="translate(1.703 11.653)" fill="#fff"/>
    </g>
  </g>
</svg>
